<mxfile host="app.diagrams.net" agent="Mozilla/5.0 (X11; Linux x86_64; rv:131.0) Gecko/20100101 Firefox/131.0" version="24.8.4" pages="6">
  <diagram name="Actor Diagram" id="0odxHVuXM_3ZLZ7NTb2R">
    <mxGraphModel dx="1795" dy="1015" grid="1" gridSize="10" guides="1" tooltips="1" connect="1" arrows="1" fold="1" page="1" pageScale="1" pageWidth="850" pageHeight="1100" math="0" shadow="0">
      <root>
        <mxCell id="0" />
        <mxCell id="1" parent="0" />
        <mxCell id="Hb2yf2S4lOdfkv3By5Pp-13" style="edgeStyle=orthogonalEdgeStyle;rounded=0;orthogonalLoop=1;jettySize=auto;html=1;entryX=0;entryY=0.5;entryDx=0;entryDy=0;" edge="1" parent="1" source="Hb2yf2S4lOdfkv3By5Pp-1" target="Hb2yf2S4lOdfkv3By5Pp-7">
          <mxGeometry relative="1" as="geometry" />
        </mxCell>
        <mxCell id="Hb2yf2S4lOdfkv3By5Pp-14" style="edgeStyle=orthogonalEdgeStyle;rounded=0;orthogonalLoop=1;jettySize=auto;html=1;exitX=0.5;exitY=0.5;exitDx=0;exitDy=0;exitPerimeter=0;entryX=-0.006;entryY=0.562;entryDx=0;entryDy=0;entryPerimeter=0;" edge="1" parent="1" source="Hb2yf2S4lOdfkv3By5Pp-1" target="Hb2yf2S4lOdfkv3By5Pp-6">
          <mxGeometry relative="1" as="geometry">
            <mxPoint x="420" y="290" as="targetPoint" />
            <Array as="points">
              <mxPoint x="341" y="480" />
              <mxPoint x="341" y="275" />
              <mxPoint x="449" y="275" />
              <mxPoint x="449" y="293" />
            </Array>
          </mxGeometry>
        </mxCell>
        <mxCell id="Hb2yf2S4lOdfkv3By5Pp-15" style="edgeStyle=orthogonalEdgeStyle;rounded=0;orthogonalLoop=1;jettySize=auto;html=1;entryX=-0.006;entryY=0.562;entryDx=0;entryDy=0;entryPerimeter=0;" edge="1" parent="1" source="Hb2yf2S4lOdfkv3By5Pp-1" target="Hb2yf2S4lOdfkv3By5Pp-8">
          <mxGeometry relative="1" as="geometry">
            <mxPoint x="340" y="720" as="targetPoint" />
          </mxGeometry>
        </mxCell>
        <mxCell id="Hb2yf2S4lOdfkv3By5Pp-1" value="Actor" style="shape=umlActor;verticalLabelPosition=bottom;verticalAlign=top;html=1;" vertex="1" parent="1">
          <mxGeometry x="190" y="450" width="30" height="60" as="geometry" />
        </mxCell>
        <mxCell id="Hb2yf2S4lOdfkv3By5Pp-6" value="&lt;div&gt;Call Controls&lt;/div&gt;&lt;div&gt;(offer, join, reject, leave)&lt;/div&gt;" style="ellipse;whiteSpace=wrap;html=1;" vertex="1" parent="1">
          <mxGeometry x="480" y="220" width="180" height="130" as="geometry" />
        </mxCell>
        <mxCell id="Hb2yf2S4lOdfkv3By5Pp-7" value="Audio I/O Configuration" style="ellipse;whiteSpace=wrap;html=1;" vertex="1" parent="1">
          <mxGeometry x="470" y="430" width="140" height="100" as="geometry" />
        </mxCell>
        <mxCell id="Hb2yf2S4lOdfkv3By5Pp-8" value="&lt;div&gt;In-call Media Controls&lt;/div&gt;&lt;div&gt;(mute, unmute, record, etc)&lt;br&gt;&lt;/div&gt;" style="ellipse;whiteSpace=wrap;html=1;" vertex="1" parent="1">
          <mxGeometry x="450" y="640" width="160" height="130" as="geometry" />
        </mxCell>
      </root>
    </mxGraphModel>
  </diagram>
  <diagram id="0thNydq9HalUbvEgHtha" name="Component Diagram">
    <mxGraphModel dx="1795" dy="1015" grid="1" gridSize="10" guides="1" tooltips="1" connect="1" arrows="1" fold="1" page="1" pageScale="1" pageWidth="850" pageHeight="1100" math="0" shadow="0">
      <root>
        <mxCell id="0" />
        <mxCell id="1" parent="0" />
        <mxCell id="Y7Y9AYfrEVV57_Mwn43e-1" value="Blink Controller" style="html=1;dropTarget=0;whiteSpace=wrap;" vertex="1" parent="1">
          <mxGeometry x="280" y="320" width="180" height="90" as="geometry" />
        </mxCell>
        <mxCell id="Y7Y9AYfrEVV57_Mwn43e-2" value="" style="shape=module;jettyWidth=8;jettyHeight=4;" vertex="1" parent="Y7Y9AYfrEVV57_Mwn43e-1">
          <mxGeometry x="1" width="20" height="20" relative="1" as="geometry">
            <mxPoint x="-27" y="7" as="offset" />
          </mxGeometry>
        </mxCell>
        <mxCell id="Y7Y9AYfrEVV57_Mwn43e-3" value="&lt;div&gt;Gossip Listener&lt;/div&gt;" style="html=1;dropTarget=0;whiteSpace=wrap;" vertex="1" parent="1">
          <mxGeometry x="390" y="30" width="180" height="90" as="geometry" />
        </mxCell>
        <mxCell id="Y7Y9AYfrEVV57_Mwn43e-4" value="" style="shape=module;jettyWidth=8;jettyHeight=4;" vertex="1" parent="Y7Y9AYfrEVV57_Mwn43e-3">
          <mxGeometry x="1" width="20" height="20" relative="1" as="geometry">
            <mxPoint x="-27" y="7" as="offset" />
          </mxGeometry>
        </mxCell>
        <mxCell id="Y7Y9AYfrEVV57_Mwn43e-5" value="Gossip Sender" style="html=1;dropTarget=0;whiteSpace=wrap;" vertex="1" parent="1">
          <mxGeometry x="140" y="30" width="180" height="90" as="geometry" />
        </mxCell>
        <mxCell id="Y7Y9AYfrEVV57_Mwn43e-6" value="" style="shape=module;jettyWidth=8;jettyHeight=4;" vertex="1" parent="Y7Y9AYfrEVV57_Mwn43e-5">
          <mxGeometry x="1" width="20" height="20" relative="1" as="geometry">
            <mxPoint x="-27" y="7" as="offset" />
          </mxGeometry>
        </mxCell>
        <mxCell id="Y7Y9AYfrEVV57_Mwn43e-7" value="WebRTC Controller" style="html=1;dropTarget=0;whiteSpace=wrap;" vertex="1" parent="1">
          <mxGeometry x="600" y="140" width="180" height="90" as="geometry" />
        </mxCell>
        <mxCell id="Y7Y9AYfrEVV57_Mwn43e-8" value="" style="shape=module;jettyWidth=8;jettyHeight=4;" vertex="1" parent="Y7Y9AYfrEVV57_Mwn43e-7">
          <mxGeometry x="1" width="20" height="20" relative="1" as="geometry">
            <mxPoint x="-27" y="7" as="offset" />
          </mxGeometry>
        </mxCell>
        <mxCell id="Y7Y9AYfrEVV57_Mwn43e-9" value="&lt;div&gt;Media Controller&lt;/div&gt;" style="html=1;dropTarget=0;whiteSpace=wrap;" vertex="1" parent="1">
          <mxGeometry x="270" y="570" width="180" height="90" as="geometry" />
        </mxCell>
        <mxCell id="Y7Y9AYfrEVV57_Mwn43e-10" value="" style="shape=module;jettyWidth=8;jettyHeight=4;" vertex="1" parent="Y7Y9AYfrEVV57_Mwn43e-9">
          <mxGeometry x="1" width="20" height="20" relative="1" as="geometry">
            <mxPoint x="-27" y="7" as="offset" />
          </mxGeometry>
        </mxCell>
        <mxCell id="Y7Y9AYfrEVV57_Mwn43e-11" value="Sink Track Controller" style="html=1;dropTarget=0;whiteSpace=wrap;" vertex="1" parent="1">
          <mxGeometry x="90" y="710" width="180" height="90" as="geometry" />
        </mxCell>
        <mxCell id="Y7Y9AYfrEVV57_Mwn43e-12" value="" style="shape=module;jettyWidth=8;jettyHeight=4;" vertex="1" parent="Y7Y9AYfrEVV57_Mwn43e-11">
          <mxGeometry x="1" width="20" height="20" relative="1" as="geometry">
            <mxPoint x="-27" y="7" as="offset" />
          </mxGeometry>
        </mxCell>
        <mxCell id="Y7Y9AYfrEVV57_Mwn43e-13" value="Source Track" style="html=1;dropTarget=0;whiteSpace=wrap;" vertex="1" parent="1">
          <mxGeometry x="420" y="710" width="180" height="90" as="geometry" />
        </mxCell>
        <mxCell id="Y7Y9AYfrEVV57_Mwn43e-14" value="" style="shape=module;jettyWidth=8;jettyHeight=4;" vertex="1" parent="Y7Y9AYfrEVV57_Mwn43e-13">
          <mxGeometry x="1" width="20" height="20" relative="1" as="geometry">
            <mxPoint x="-27" y="7" as="offset" />
          </mxGeometry>
        </mxCell>
        <mxCell id="Y7Y9AYfrEVV57_Mwn43e-15" value="Sink Tracks" style="html=1;dropTarget=0;whiteSpace=wrap;" vertex="1" parent="1">
          <mxGeometry x="90" y="880" width="180" height="90" as="geometry" />
        </mxCell>
        <mxCell id="Y7Y9AYfrEVV57_Mwn43e-16" value="" style="shape=module;jettyWidth=8;jettyHeight=4;" vertex="1" parent="Y7Y9AYfrEVV57_Mwn43e-15">
          <mxGeometry x="1" width="20" height="20" relative="1" as="geometry">
            <mxPoint x="-27" y="7" as="offset" />
          </mxGeometry>
        </mxCell>
        <mxCell id="Y7Y9AYfrEVV57_Mwn43e-17" value="UI" style="html=1;dropTarget=0;whiteSpace=wrap;" vertex="1" parent="1">
          <mxGeometry x="30" y="180" width="180" height="90" as="geometry" />
        </mxCell>
        <mxCell id="Y7Y9AYfrEVV57_Mwn43e-18" value="" style="shape=module;jettyWidth=8;jettyHeight=4;" vertex="1" parent="Y7Y9AYfrEVV57_Mwn43e-17">
          <mxGeometry x="1" width="20" height="20" relative="1" as="geometry">
            <mxPoint x="-27" y="7" as="offset" />
          </mxGeometry>
        </mxCell>
        <mxCell id="Y7Y9AYfrEVV57_Mwn43e-20" value="" style="ellipse;whiteSpace=wrap;html=1;align=center;aspect=fixed;fillColor=none;strokeColor=none;resizable=0;perimeter=centerPerimeter;rotatable=0;allowArrows=0;points=[];outlineConnect=1;" vertex="1" parent="1">
          <mxGeometry x="410" y="450" width="10" height="10" as="geometry" />
        </mxCell>
        <mxCell id="Y7Y9AYfrEVV57_Mwn43e-22" value="" style="ellipse;whiteSpace=wrap;html=1;align=center;aspect=fixed;fillColor=none;strokeColor=none;resizable=0;perimeter=centerPerimeter;rotatable=0;allowArrows=0;points=[];outlineConnect=1;" vertex="1" parent="1">
          <mxGeometry x="410" y="450" width="10" height="10" as="geometry" />
        </mxCell>
        <mxCell id="Y7Y9AYfrEVV57_Mwn43e-24" value="" style="ellipse;whiteSpace=wrap;html=1;align=center;aspect=fixed;fillColor=none;strokeColor=none;resizable=0;perimeter=centerPerimeter;rotatable=0;allowArrows=0;points=[];outlineConnect=1;" vertex="1" parent="1">
          <mxGeometry x="410" y="450" width="10" height="10" as="geometry" />
        </mxCell>
        <mxCell id="Y7Y9AYfrEVV57_Mwn43e-26" value="" style="ellipse;whiteSpace=wrap;html=1;align=center;aspect=fixed;fillColor=none;strokeColor=none;resizable=0;perimeter=centerPerimeter;rotatable=0;allowArrows=0;points=[];outlineConnect=1;" vertex="1" parent="1">
          <mxGeometry x="410" y="450" width="10" height="10" as="geometry" />
        </mxCell>
        <mxCell id="Y7Y9AYfrEVV57_Mwn43e-28" value="" style="ellipse;whiteSpace=wrap;html=1;align=center;aspect=fixed;fillColor=none;strokeColor=none;resizable=0;perimeter=centerPerimeter;rotatable=0;allowArrows=0;points=[];outlineConnect=1;" vertex="1" parent="1">
          <mxGeometry x="410" y="450" width="10" height="10" as="geometry" />
        </mxCell>
        <mxCell id="Y7Y9AYfrEVV57_Mwn43e-30" value="" style="ellipse;whiteSpace=wrap;html=1;align=center;aspect=fixed;fillColor=none;strokeColor=none;resizable=0;perimeter=centerPerimeter;rotatable=0;allowArrows=0;points=[];outlineConnect=1;" vertex="1" parent="1">
          <mxGeometry x="410" y="450" width="10" height="10" as="geometry" />
        </mxCell>
        <mxCell id="Y7Y9AYfrEVV57_Mwn43e-32" value="" style="ellipse;whiteSpace=wrap;html=1;align=center;aspect=fixed;fillColor=none;strokeColor=none;resizable=0;perimeter=centerPerimeter;rotatable=0;allowArrows=0;points=[];outlineConnect=1;" vertex="1" parent="1">
          <mxGeometry x="410" y="450" width="10" height="10" as="geometry" />
        </mxCell>
        <mxCell id="Y7Y9AYfrEVV57_Mwn43e-33" value="" style="rounded=0;orthogonalLoop=1;jettySize=auto;html=1;endArrow=halfCircle;endFill=0;endSize=6;strokeWidth=1;sketch=0;exitX=0.556;exitY=1.011;exitDx=0;exitDy=0;exitPerimeter=0;" edge="1" parent="1" source="Y7Y9AYfrEVV57_Mwn43e-1">
          <mxGeometry relative="1" as="geometry">
            <mxPoint x="440" y="455" as="sourcePoint" />
            <mxPoint x="400" y="470" as="targetPoint" />
          </mxGeometry>
        </mxCell>
        <mxCell id="Y7Y9AYfrEVV57_Mwn43e-34" value="" style="rounded=0;orthogonalLoop=1;jettySize=auto;html=1;endArrow=oval;endFill=0;sketch=0;sourcePerimeterSpacing=0;targetPerimeterSpacing=0;endSize=10;exitX=0.633;exitY=0.044;exitDx=0;exitDy=0;exitPerimeter=0;" edge="1" parent="1" source="Y7Y9AYfrEVV57_Mwn43e-9">
          <mxGeometry relative="1" as="geometry">
            <mxPoint x="380" y="530" as="sourcePoint" />
            <mxPoint x="400" y="470" as="targetPoint" />
            <Array as="points" />
          </mxGeometry>
        </mxCell>
        <mxCell id="Y7Y9AYfrEVV57_Mwn43e-35" value="" style="ellipse;whiteSpace=wrap;html=1;align=center;aspect=fixed;fillColor=none;strokeColor=none;resizable=0;perimeter=centerPerimeter;rotatable=0;allowArrows=0;points=[];outlineConnect=1;" vertex="1" parent="1">
          <mxGeometry x="415" y="450" width="10" height="10" as="geometry" />
        </mxCell>
        <mxCell id="Y7Y9AYfrEVV57_Mwn43e-36" value="" style="rounded=0;orthogonalLoop=1;jettySize=auto;html=1;endArrow=halfCircle;endFill=0;endSize=6;strokeWidth=1;sketch=0;exitX=0.5;exitY=1;exitDx=0;exitDy=0;" edge="1" parent="1" source="Y7Y9AYfrEVV57_Mwn43e-17">
          <mxGeometry relative="1" as="geometry">
            <mxPoint x="440" y="455" as="sourcePoint" />
            <mxPoint x="130" y="370" as="targetPoint" />
          </mxGeometry>
        </mxCell>
        <mxCell id="Y7Y9AYfrEVV57_Mwn43e-37" value="" style="rounded=0;orthogonalLoop=1;jettySize=auto;html=1;endArrow=oval;endFill=0;sketch=0;sourcePerimeterSpacing=0;targetPerimeterSpacing=0;endSize=10;exitX=0.5;exitY=0;exitDx=0;exitDy=0;" edge="1" parent="1" source="Y7Y9AYfrEVV57_Mwn43e-48">
          <mxGeometry relative="1" as="geometry">
            <mxPoint x="400" y="455" as="sourcePoint" />
            <mxPoint x="130" y="370" as="targetPoint" />
          </mxGeometry>
        </mxCell>
        <mxCell id="Y7Y9AYfrEVV57_Mwn43e-38" value="" style="ellipse;whiteSpace=wrap;html=1;align=center;aspect=fixed;fillColor=none;strokeColor=none;resizable=0;perimeter=centerPerimeter;rotatable=0;allowArrows=0;points=[];outlineConnect=1;" vertex="1" parent="1">
          <mxGeometry x="415" y="450" width="10" height="10" as="geometry" />
        </mxCell>
        <mxCell id="Y7Y9AYfrEVV57_Mwn43e-39" value="" style="rounded=0;orthogonalLoop=1;jettySize=auto;html=1;endArrow=halfCircle;endFill=0;endSize=6;strokeWidth=1;sketch=0;" edge="1" parent="1" source="Y7Y9AYfrEVV57_Mwn43e-1">
          <mxGeometry relative="1" as="geometry">
            <mxPoint x="440" y="455" as="sourcePoint" />
            <mxPoint x="290" y="220" as="targetPoint" />
          </mxGeometry>
        </mxCell>
        <mxCell id="Y7Y9AYfrEVV57_Mwn43e-40" value="" style="rounded=0;orthogonalLoop=1;jettySize=auto;html=1;endArrow=oval;endFill=0;sketch=0;sourcePerimeterSpacing=0;targetPerimeterSpacing=0;endSize=10;exitX=0.5;exitY=1;exitDx=0;exitDy=0;" edge="1" parent="1" source="Y7Y9AYfrEVV57_Mwn43e-5">
          <mxGeometry relative="1" as="geometry">
            <mxPoint x="400" y="455" as="sourcePoint" />
            <mxPoint x="290" y="220" as="targetPoint" />
          </mxGeometry>
        </mxCell>
        <mxCell id="Y7Y9AYfrEVV57_Mwn43e-41" value="" style="ellipse;whiteSpace=wrap;html=1;align=center;aspect=fixed;fillColor=none;strokeColor=none;resizable=0;perimeter=centerPerimeter;rotatable=0;allowArrows=0;points=[];outlineConnect=1;" vertex="1" parent="1">
          <mxGeometry x="415" y="450" width="10" height="10" as="geometry" />
        </mxCell>
        <mxCell id="Y7Y9AYfrEVV57_Mwn43e-42" value="" style="rounded=0;orthogonalLoop=1;jettySize=auto;html=1;endArrow=halfCircle;endFill=0;endSize=6;strokeWidth=1;sketch=0;exitX=0.75;exitY=0;exitDx=0;exitDy=0;" edge="1" parent="1" source="Y7Y9AYfrEVV57_Mwn43e-1">
          <mxGeometry relative="1" as="geometry">
            <mxPoint x="440" y="455" as="sourcePoint" />
            <mxPoint x="420" y="220" as="targetPoint" />
          </mxGeometry>
        </mxCell>
        <mxCell id="Y7Y9AYfrEVV57_Mwn43e-43" value="" style="rounded=0;orthogonalLoop=1;jettySize=auto;html=1;endArrow=oval;endFill=0;sketch=0;sourcePerimeterSpacing=0;targetPerimeterSpacing=0;endSize=10;exitX=0.2;exitY=0.944;exitDx=0;exitDy=0;exitPerimeter=0;" edge="1" parent="1" source="Y7Y9AYfrEVV57_Mwn43e-3">
          <mxGeometry relative="1" as="geometry">
            <mxPoint x="400" y="455" as="sourcePoint" />
            <mxPoint x="420" y="220" as="targetPoint" />
          </mxGeometry>
        </mxCell>
        <mxCell id="Y7Y9AYfrEVV57_Mwn43e-44" value="" style="ellipse;whiteSpace=wrap;html=1;align=center;aspect=fixed;fillColor=none;strokeColor=none;resizable=0;perimeter=centerPerimeter;rotatable=0;allowArrows=0;points=[];outlineConnect=1;" vertex="1" parent="1">
          <mxGeometry x="415" y="450" width="10" height="10" as="geometry" />
        </mxCell>
        <mxCell id="Y7Y9AYfrEVV57_Mwn43e-45" value="" style="rounded=0;orthogonalLoop=1;jettySize=auto;html=1;endArrow=halfCircle;endFill=0;endSize=6;strokeWidth=1;sketch=0;exitX=1;exitY=0.6;exitDx=0;exitDy=0;exitPerimeter=0;" edge="1" parent="1" source="Y7Y9AYfrEVV57_Mwn43e-1">
          <mxGeometry relative="1" as="geometry">
            <mxPoint x="440" y="455" as="sourcePoint" />
            <mxPoint x="550" y="330" as="targetPoint" />
          </mxGeometry>
        </mxCell>
        <mxCell id="Y7Y9AYfrEVV57_Mwn43e-46" value="" style="rounded=0;orthogonalLoop=1;jettySize=auto;html=1;endArrow=oval;endFill=0;sketch=0;sourcePerimeterSpacing=0;targetPerimeterSpacing=0;endSize=10;exitX=0.306;exitY=0.989;exitDx=0;exitDy=0;exitPerimeter=0;" edge="1" parent="1" source="Y7Y9AYfrEVV57_Mwn43e-7">
          <mxGeometry relative="1" as="geometry">
            <mxPoint x="400" y="455" as="sourcePoint" />
            <mxPoint x="550" y="330" as="targetPoint" />
          </mxGeometry>
        </mxCell>
        <mxCell id="Y7Y9AYfrEVV57_Mwn43e-47" value="" style="ellipse;whiteSpace=wrap;html=1;align=center;aspect=fixed;fillColor=none;strokeColor=none;resizable=0;perimeter=centerPerimeter;rotatable=0;allowArrows=0;points=[];outlineConnect=1;" vertex="1" parent="1">
          <mxGeometry x="415" y="450" width="10" height="10" as="geometry" />
        </mxCell>
        <mxCell id="Y7Y9AYfrEVV57_Mwn43e-48" value="&lt;div&gt;Blink Impl&lt;/div&gt;" style="html=1;dropTarget=0;whiteSpace=wrap;" vertex="1" parent="1">
          <mxGeometry x="60" y="430" width="180" height="90" as="geometry" />
        </mxCell>
        <mxCell id="Y7Y9AYfrEVV57_Mwn43e-49" value="" style="shape=module;jettyWidth=8;jettyHeight=4;" vertex="1" parent="Y7Y9AYfrEVV57_Mwn43e-48">
          <mxGeometry x="1" width="20" height="20" relative="1" as="geometry">
            <mxPoint x="-27" y="7" as="offset" />
          </mxGeometry>
        </mxCell>
        <mxCell id="Y7Y9AYfrEVV57_Mwn43e-53" value="" style="rounded=0;orthogonalLoop=1;jettySize=auto;html=1;endArrow=halfCircle;endFill=0;endSize=6;strokeWidth=1;sketch=0;exitX=1;exitY=0.5;exitDx=0;exitDy=0;" edge="1" parent="1" source="Y7Y9AYfrEVV57_Mwn43e-48">
          <mxGeometry relative="1" as="geometry">
            <mxPoint x="340" y="480" as="sourcePoint" />
            <mxPoint x="300" y="460" as="targetPoint" />
          </mxGeometry>
        </mxCell>
        <mxCell id="Y7Y9AYfrEVV57_Mwn43e-54" value="" style="rounded=0;orthogonalLoop=1;jettySize=auto;html=1;endArrow=oval;endFill=0;sketch=0;sourcePerimeterSpacing=0;targetPerimeterSpacing=0;endSize=10;exitX=0.1;exitY=1.022;exitDx=0;exitDy=0;exitPerimeter=0;" edge="1" parent="1" source="Y7Y9AYfrEVV57_Mwn43e-1">
          <mxGeometry relative="1" as="geometry">
            <mxPoint x="300" y="470" as="sourcePoint" />
            <mxPoint x="300" y="460" as="targetPoint" />
          </mxGeometry>
        </mxCell>
        <mxCell id="Y7Y9AYfrEVV57_Mwn43e-55" value="" style="ellipse;whiteSpace=wrap;html=1;align=center;aspect=fixed;fillColor=none;strokeColor=none;resizable=0;perimeter=centerPerimeter;rotatable=0;allowArrows=0;points=[];outlineConnect=1;" vertex="1" parent="1">
          <mxGeometry x="415" y="360" width="10" height="10" as="geometry" />
        </mxCell>
        <mxCell id="Y7Y9AYfrEVV57_Mwn43e-56" value="" style="rounded=0;orthogonalLoop=1;jettySize=auto;html=1;endArrow=halfCircle;endFill=0;endSize=6;strokeWidth=1;sketch=0;exitX=1;exitY=0.75;exitDx=0;exitDy=0;" edge="1" parent="1" source="Y7Y9AYfrEVV57_Mwn43e-48">
          <mxGeometry relative="1" as="geometry">
            <mxPoint x="280" y="490" as="sourcePoint" />
            <mxPoint x="300" y="510" as="targetPoint" />
          </mxGeometry>
        </mxCell>
        <mxCell id="Y7Y9AYfrEVV57_Mwn43e-57" value="" style="rounded=0;orthogonalLoop=1;jettySize=auto;html=1;endArrow=oval;endFill=0;sketch=0;sourcePerimeterSpacing=0;targetPerimeterSpacing=0;endSize=10;exitX=0.25;exitY=0;exitDx=0;exitDy=0;" edge="1" parent="1" source="Y7Y9AYfrEVV57_Mwn43e-9">
          <mxGeometry relative="1" as="geometry">
            <mxPoint x="400" y="365" as="sourcePoint" />
            <mxPoint x="300" y="510" as="targetPoint" />
          </mxGeometry>
        </mxCell>
        <mxCell id="Y7Y9AYfrEVV57_Mwn43e-58" value="" style="ellipse;whiteSpace=wrap;html=1;align=center;aspect=fixed;fillColor=none;strokeColor=none;resizable=0;perimeter=centerPerimeter;rotatable=0;allowArrows=0;points=[];outlineConnect=1;" vertex="1" parent="1">
          <mxGeometry x="415" y="360" width="10" height="10" as="geometry" />
        </mxCell>
        <mxCell id="Y7Y9AYfrEVV57_Mwn43e-59" value="" style="rounded=0;orthogonalLoop=1;jettySize=auto;html=1;endArrow=halfCircle;endFill=0;endSize=6;strokeWidth=1;sketch=0;exitX=0.25;exitY=1;exitDx=0;exitDy=0;" edge="1" parent="1" source="Y7Y9AYfrEVV57_Mwn43e-9">
          <mxGeometry relative="1" as="geometry">
            <mxPoint x="440" y="645" as="sourcePoint" />
            <mxPoint x="310" y="720" as="targetPoint" />
          </mxGeometry>
        </mxCell>
        <mxCell id="Y7Y9AYfrEVV57_Mwn43e-60" value="" style="rounded=0;orthogonalLoop=1;jettySize=auto;html=1;endArrow=oval;endFill=0;sketch=0;sourcePerimeterSpacing=0;targetPerimeterSpacing=0;endSize=10;exitX=1.006;exitY=0.578;exitDx=0;exitDy=0;exitPerimeter=0;" edge="1" parent="1" source="Y7Y9AYfrEVV57_Mwn43e-11">
          <mxGeometry relative="1" as="geometry">
            <mxPoint x="360" y="730" as="sourcePoint" />
            <mxPoint x="310" y="720" as="targetPoint" />
          </mxGeometry>
        </mxCell>
        <mxCell id="Y7Y9AYfrEVV57_Mwn43e-61" value="" style="ellipse;whiteSpace=wrap;html=1;align=center;aspect=fixed;fillColor=none;strokeColor=none;resizable=0;perimeter=centerPerimeter;rotatable=0;allowArrows=0;points=[];outlineConnect=1;" vertex="1" parent="1">
          <mxGeometry x="415" y="640" width="10" height="10" as="geometry" />
        </mxCell>
        <mxCell id="Y7Y9AYfrEVV57_Mwn43e-62" value="" style="rounded=0;orthogonalLoop=1;jettySize=auto;html=1;endArrow=halfCircle;endFill=0;endSize=6;strokeWidth=1;sketch=0;exitX=0.717;exitY=0.967;exitDx=0;exitDy=0;exitPerimeter=0;" edge="1" parent="1" source="Y7Y9AYfrEVV57_Mwn43e-9">
          <mxGeometry relative="1" as="geometry">
            <mxPoint x="440" y="645" as="sourcePoint" />
            <mxPoint x="380" y="710" as="targetPoint" />
          </mxGeometry>
        </mxCell>
        <mxCell id="Y7Y9AYfrEVV57_Mwn43e-63" value="" style="rounded=0;orthogonalLoop=1;jettySize=auto;html=1;endArrow=oval;endFill=0;sketch=0;sourcePerimeterSpacing=0;targetPerimeterSpacing=0;endSize=10;exitX=-0.006;exitY=0.667;exitDx=0;exitDy=0;exitPerimeter=0;" edge="1" parent="1" source="Y7Y9AYfrEVV57_Mwn43e-13">
          <mxGeometry relative="1" as="geometry">
            <mxPoint x="400" y="645" as="sourcePoint" />
            <mxPoint x="380" y="710" as="targetPoint" />
          </mxGeometry>
        </mxCell>
        <mxCell id="Y7Y9AYfrEVV57_Mwn43e-64" value="" style="ellipse;whiteSpace=wrap;html=1;align=center;aspect=fixed;fillColor=none;strokeColor=none;resizable=0;perimeter=centerPerimeter;rotatable=0;allowArrows=0;points=[];outlineConnect=1;" vertex="1" parent="1">
          <mxGeometry x="415" y="640" width="10" height="10" as="geometry" />
        </mxCell>
        <mxCell id="Y7Y9AYfrEVV57_Mwn43e-65" value="" style="rounded=0;orthogonalLoop=1;jettySize=auto;html=1;endArrow=halfCircle;endFill=0;endSize=6;strokeWidth=1;sketch=0;exitX=0.622;exitY=0.989;exitDx=0;exitDy=0;exitPerimeter=0;" edge="1" parent="1" source="Y7Y9AYfrEVV57_Mwn43e-11">
          <mxGeometry relative="1" as="geometry">
            <mxPoint x="440" y="645" as="sourcePoint" />
            <mxPoint x="200" y="850" as="targetPoint" />
          </mxGeometry>
        </mxCell>
        <mxCell id="Y7Y9AYfrEVV57_Mwn43e-66" value="" style="rounded=0;orthogonalLoop=1;jettySize=auto;html=1;endArrow=oval;endFill=0;sketch=0;sourcePerimeterSpacing=0;targetPerimeterSpacing=0;endSize=10;exitX=0.639;exitY=-0.033;exitDx=0;exitDy=0;exitPerimeter=0;" edge="1" parent="1" source="Y7Y9AYfrEVV57_Mwn43e-15">
          <mxGeometry relative="1" as="geometry">
            <mxPoint x="400" y="645" as="sourcePoint" />
            <mxPoint x="200" y="850" as="targetPoint" />
          </mxGeometry>
        </mxCell>
        <mxCell id="Y7Y9AYfrEVV57_Mwn43e-67" value="" style="ellipse;whiteSpace=wrap;html=1;align=center;aspect=fixed;fillColor=none;strokeColor=none;resizable=0;perimeter=centerPerimeter;rotatable=0;allowArrows=0;points=[];outlineConnect=1;" vertex="1" parent="1">
          <mxGeometry x="415" y="640" width="10" height="10" as="geometry" />
        </mxCell>
      </root>
    </mxGraphModel>
  </diagram>
  <diagram id="EX8g75EXB_YF9YcGfBzM" name="BlinkControllerActor">
    <mxGraphModel dx="1795" dy="986" grid="1" gridSize="10" guides="1" tooltips="1" connect="1" arrows="1" fold="1" page="1" pageScale="1" pageWidth="850" pageHeight="1100" math="0" shadow="0">
      <root>
        <mxCell id="0" />
        <mxCell id="1" parent="0" />
        <mxCell id="aXL5R9hOz95w01V5PU-g-4" style="edgeStyle=orthogonalEdgeStyle;rounded=0;orthogonalLoop=1;jettySize=auto;html=1;exitX=0.5;exitY=0.5;exitDx=0;exitDy=0;exitPerimeter=0;entryX=0;entryY=0.5;entryDx=0;entryDy=0;" edge="1" parent="1" source="w4uWR3iW40HeW5PluOSq-1" target="aXL5R9hOz95w01V5PU-g-2">
          <mxGeometry relative="1" as="geometry" />
        </mxCell>
        <mxCell id="aXL5R9hOz95w01V5PU-g-5" style="edgeStyle=orthogonalEdgeStyle;rounded=0;orthogonalLoop=1;jettySize=auto;html=1;entryX=0;entryY=0.5;entryDx=0;entryDy=0;" edge="1" parent="1" source="w4uWR3iW40HeW5PluOSq-1" target="aXL5R9hOz95w01V5PU-g-1">
          <mxGeometry relative="1" as="geometry">
            <mxPoint x="330" y="140" as="targetPoint" />
          </mxGeometry>
        </mxCell>
        <mxCell id="aXL5R9hOz95w01V5PU-g-6" style="edgeStyle=orthogonalEdgeStyle;rounded=0;orthogonalLoop=1;jettySize=auto;html=1;entryX=0;entryY=0.5;entryDx=0;entryDy=0;" edge="1" parent="1" source="w4uWR3iW40HeW5PluOSq-1" target="aXL5R9hOz95w01V5PU-g-3">
          <mxGeometry relative="1" as="geometry">
            <mxPoint x="330" y="480" as="targetPoint" />
          </mxGeometry>
        </mxCell>
        <mxCell id="w4uWR3iW40HeW5PluOSq-1" value="Actor" style="shape=umlActor;verticalLabelPosition=bottom;verticalAlign=top;html=1;" vertex="1" parent="1">
          <mxGeometry x="160" y="275" width="30" height="60" as="geometry" />
        </mxCell>
        <mxCell id="aXL5R9hOz95w01V5PU-g-1" value="Handle UI Command" style="ellipse;whiteSpace=wrap;html=1;" vertex="1" parent="1">
          <mxGeometry x="475" y="110" width="140" height="70" as="geometry" />
        </mxCell>
        <mxCell id="aXL5R9hOz95w01V5PU-g-2" value="Handle Incoming Gossip Messages" style="ellipse;whiteSpace=wrap;html=1;" vertex="1" parent="1">
          <mxGeometry x="440" y="250" width="210" height="110" as="geometry" />
        </mxCell>
        <mxCell id="aXL5R9hOz95w01V5PU-g-3" value="Handle WebRTC Events" style="ellipse;whiteSpace=wrap;html=1;" vertex="1" parent="1">
          <mxGeometry x="460" y="410" width="170" height="90" as="geometry" />
        </mxCell>
        <mxCell id="aXL5R9hOz95w01V5PU-g-11" value="UI Commands" style="swimlane;whiteSpace=wrap;html=1;" vertex="1" parent="1">
          <mxGeometry x="70" y="540" width="200" height="170" as="geometry" />
        </mxCell>
        <mxCell id="aXL5R9hOz95w01V5PU-g-12" value="&lt;ul&gt;&lt;li&gt;Join/Leave Call&lt;/li&gt;&lt;li&gt;Mute/Unmute Self&lt;/li&gt;&lt;li&gt;Record Call&lt;/li&gt;&lt;/ul&gt;" style="text;html=1;align=left;verticalAlign=middle;resizable=0;points=[];autosize=1;strokeColor=none;fillColor=none;" vertex="1" parent="aXL5R9hOz95w01V5PU-g-11">
          <mxGeometry y="30" width="210" height="110" as="geometry" />
        </mxCell>
        <mxCell id="aXL5R9hOz95w01V5PU-g-13" value="Gossip Messages" style="swimlane;whiteSpace=wrap;html=1;" vertex="1" parent="1">
          <mxGeometry x="290" y="540" width="310" height="140" as="geometry" />
        </mxCell>
        <mxCell id="aXL5R9hOz95w01V5PU-g-14" value="&lt;div align=&quot;left&quot;&gt;&lt;ul&gt;&lt;li&gt;Peer Discovery&lt;/li&gt;&lt;li&gt;WebRTC Signaling (ICE, SDP)&lt;/li&gt;&lt;li&gt;Call Initiation and Termination&lt;br&gt;&lt;/li&gt;&lt;/ul&gt;&lt;/div&gt;" style="text;html=1;align=left;verticalAlign=middle;resizable=0;points=[];autosize=1;strokeColor=none;fillColor=none;" vertex="1" parent="aXL5R9hOz95w01V5PU-g-13">
          <mxGeometry y="30" width="310" height="110" as="geometry" />
        </mxCell>
        <mxCell id="aXL5R9hOz95w01V5PU-g-15" value="WebRTC Messages" style="swimlane;whiteSpace=wrap;html=1;" vertex="1" parent="1">
          <mxGeometry x="610" y="540" width="200" height="180" as="geometry" />
        </mxCell>
        <mxCell id="aXL5R9hOz95w01V5PU-g-17" value="&lt;div align=&quot;left&quot;&gt;&lt;ul&gt;&lt;li&gt;Track Added&lt;/li&gt;&lt;li&gt;Call Initiated&lt;/li&gt;&lt;li&gt;Signaling&lt;/li&gt;&lt;li&gt;Disconnected&lt;br&gt;&lt;/li&gt;&lt;/ul&gt;&lt;/div&gt;" style="text;html=1;align=left;verticalAlign=middle;resizable=0;points=[];autosize=1;strokeColor=none;fillColor=none;" vertex="1" parent="aXL5R9hOz95w01V5PU-g-15">
          <mxGeometry x="5" y="20" width="170" height="130" as="geometry" />
        </mxCell>
      </root>
    </mxGraphModel>
  </diagram>
  <diagram id="z0GmU2yotTS6dsbQpib5" name="GossipListenerActor">
    <mxGraphModel dx="1795" dy="986" grid="1" gridSize="10" guides="1" tooltips="1" connect="1" arrows="1" fold="1" page="1" pageScale="1" pageWidth="850" pageHeight="1100" math="0" shadow="0">
      <root>
        <mxCell id="0" />
        <mxCell id="1" parent="0" />
        <mxCell id="WCfVBPSfErAhbPpGhbCr-1" style="edgeStyle=orthogonalEdgeStyle;rounded=0;orthogonalLoop=1;jettySize=auto;html=1;" edge="1" parent="1" source="BzSUtUHYeSLfsF8I9h4h-1" target="BzSUtUHYeSLfsF8I9h4h-3">
          <mxGeometry relative="1" as="geometry" />
        </mxCell>
        <mxCell id="WCfVBPSfErAhbPpGhbCr-2" style="edgeStyle=orthogonalEdgeStyle;rounded=0;orthogonalLoop=1;jettySize=auto;html=1;entryX=0;entryY=0.5;entryDx=0;entryDy=0;" edge="1" parent="1" source="BzSUtUHYeSLfsF8I9h4h-1" target="BzSUtUHYeSLfsF8I9h4h-2">
          <mxGeometry relative="1" as="geometry">
            <mxPoint x="270" y="80" as="targetPoint" />
          </mxGeometry>
        </mxCell>
        <mxCell id="WCfVBPSfErAhbPpGhbCr-3" style="edgeStyle=orthogonalEdgeStyle;rounded=0;orthogonalLoop=1;jettySize=auto;html=1;entryX=0;entryY=0.614;entryDx=0;entryDy=0;entryPerimeter=0;" edge="1" parent="1" source="BzSUtUHYeSLfsF8I9h4h-1" target="BzSUtUHYeSLfsF8I9h4h-4">
          <mxGeometry relative="1" as="geometry">
            <mxPoint x="320" y="360" as="targetPoint" />
          </mxGeometry>
        </mxCell>
        <mxCell id="WCfVBPSfErAhbPpGhbCr-4" style="edgeStyle=orthogonalEdgeStyle;rounded=0;orthogonalLoop=1;jettySize=auto;html=1;entryX=0;entryY=0.5;entryDx=0;entryDy=0;" edge="1" parent="1" source="BzSUtUHYeSLfsF8I9h4h-1" target="BzSUtUHYeSLfsF8I9h4h-5">
          <mxGeometry relative="1" as="geometry">
            <mxPoint x="310" y="510" as="targetPoint" />
          </mxGeometry>
        </mxCell>
        <mxCell id="BzSUtUHYeSLfsF8I9h4h-1" value="Actor" style="shape=umlActor;verticalLabelPosition=bottom;verticalAlign=top;html=1;outlineConnect=0;" vertex="1" parent="1">
          <mxGeometry x="170" y="240" width="30" height="60" as="geometry" />
        </mxCell>
        <mxCell id="BzSUtUHYeSLfsF8I9h4h-2" value="Receive WebRTC Signals from Peers" style="ellipse;whiteSpace=wrap;html=1;" vertex="1" parent="1">
          <mxGeometry x="420" y="40" width="165" height="100" as="geometry" />
        </mxCell>
        <mxCell id="BzSUtUHYeSLfsF8I9h4h-3" value="Receive Call Wide Broadcasts" style="ellipse;whiteSpace=wrap;html=1;" vertex="1" parent="1">
          <mxGeometry x="422.5" y="180" width="140" height="70" as="geometry" />
        </mxCell>
        <mxCell id="BzSUtUHYeSLfsF8I9h4h-4" value="Receive Incoming Calls" style="ellipse;whiteSpace=wrap;html=1;" vertex="1" parent="1">
          <mxGeometry x="420" y="300" width="140" height="70" as="geometry" />
        </mxCell>
        <mxCell id="BzSUtUHYeSLfsF8I9h4h-5" value="&lt;div&gt;Handle Commands from Blink Controller&lt;/div&gt;" style="ellipse;whiteSpace=wrap;html=1;" vertex="1" parent="1">
          <mxGeometry x="420" y="420" width="170" height="90" as="geometry" />
        </mxCell>
        <mxCell id="WCfVBPSfErAhbPpGhbCr-6" value="Call Wide Broadcasts" style="swimlane;whiteSpace=wrap;html=1;" vertex="1" parent="1">
          <mxGeometry x="50" y="560" width="220" height="160" as="geometry" />
        </mxCell>
        <mxCell id="WCfVBPSfErAhbPpGhbCr-7" value="&lt;div align=&quot;left&quot;&gt;&lt;ul&gt;&lt;li&gt;Peer Joined Call&lt;/li&gt;&lt;li&gt;Peer Left Call&lt;br&gt;&lt;/li&gt;&lt;li&gt;Peer Muted&lt;/li&gt;&lt;li&gt;Peer Unmuted&lt;br&gt;&lt;/li&gt;&lt;/ul&gt;&lt;/div&gt;" style="text;html=1;align=left;verticalAlign=middle;resizable=0;points=[];autosize=1;strokeColor=none;fillColor=none;" vertex="1" parent="WCfVBPSfErAhbPpGhbCr-6">
          <mxGeometry y="20" width="190" height="130" as="geometry" />
        </mxCell>
        <mxCell id="WCfVBPSfErAhbPpGhbCr-8" value="Blink Controller Cmds" style="swimlane;whiteSpace=wrap;html=1;" vertex="1" parent="1">
          <mxGeometry x="290" y="560" width="230" height="150" as="geometry" />
        </mxCell>
        <mxCell id="WCfVBPSfErAhbPpGhbCr-9" value="&lt;div align=&quot;left&quot;&gt;&lt;ul&gt;&lt;li&gt;Listen for Incoming Calls&lt;/li&gt;&lt;li&gt;Join Call&lt;/li&gt;&lt;li&gt;Leave Call&lt;br&gt;&lt;/li&gt;&lt;/ul&gt;&lt;/div&gt;" style="text;html=1;align=center;verticalAlign=middle;resizable=0;points=[];autosize=1;strokeColor=none;fillColor=none;" vertex="1" parent="WCfVBPSfErAhbPpGhbCr-8">
          <mxGeometry x="-20" y="20" width="260" height="110" as="geometry" />
        </mxCell>
        <mxCell id="WCfVBPSfErAhbPpGhbCr-10" value="WebRTC Signals" style="swimlane;whiteSpace=wrap;html=1;" vertex="1" parent="1">
          <mxGeometry x="550" y="560" width="190" height="150" as="geometry" />
        </mxCell>
        <mxCell id="WCfVBPSfErAhbPpGhbCr-11" value="&lt;div align=&quot;left&quot;&gt;&lt;ul&gt;&lt;li&gt;SDP&lt;/li&gt;&lt;li&gt;ICE&lt;br&gt;&lt;/li&gt;&lt;/ul&gt;&lt;/div&gt;" style="text;html=1;align=left;verticalAlign=middle;resizable=0;points=[];autosize=1;strokeColor=none;fillColor=none;" vertex="1" parent="WCfVBPSfErAhbPpGhbCr-10">
          <mxGeometry y="20" width="100" height="90" as="geometry" />
        </mxCell>
      </root>
    </mxGraphModel>
  </diagram>
  <diagram id="WIPdpR4ZhBiT1UJnWtDn" name="MediaControllerActor">
    <mxGraphModel dx="1795" dy="986" grid="1" gridSize="10" guides="1" tooltips="1" connect="1" arrows="1" fold="1" page="1" pageScale="1" pageWidth="850" pageHeight="1100" math="0" shadow="0">
      <root>
        <mxCell id="0" />
        <mxCell id="1" parent="0" />
        <mxCell id="IXBFrIvI4-efO7xbqZAn-6" style="edgeStyle=orthogonalEdgeStyle;rounded=0;orthogonalLoop=1;jettySize=auto;html=1;entryX=0;entryY=0.5;entryDx=0;entryDy=0;" edge="1" parent="1" source="IXBFrIvI4-efO7xbqZAn-1" target="IXBFrIvI4-efO7xbqZAn-3">
          <mxGeometry relative="1" as="geometry">
            <mxPoint x="350" y="260" as="targetPoint" />
          </mxGeometry>
        </mxCell>
        <mxCell id="IXBFrIvI4-efO7xbqZAn-7" style="edgeStyle=orthogonalEdgeStyle;rounded=0;orthogonalLoop=1;jettySize=auto;html=1;entryX=0;entryY=0.5;entryDx=0;entryDy=0;" edge="1" parent="1" source="IXBFrIvI4-efO7xbqZAn-1" target="IXBFrIvI4-efO7xbqZAn-2">
          <mxGeometry relative="1" as="geometry">
            <mxPoint x="320" y="110" as="targetPoint" />
            <Array as="points">
              <mxPoint x="330" y="300" />
              <mxPoint x="330" y="110" />
            </Array>
          </mxGeometry>
        </mxCell>
        <mxCell id="IXBFrIvI4-efO7xbqZAn-8" style="edgeStyle=orthogonalEdgeStyle;rounded=0;orthogonalLoop=1;jettySize=auto;html=1;entryX=0;entryY=0.5;entryDx=0;entryDy=0;" edge="1" parent="1" source="IXBFrIvI4-efO7xbqZAn-1" target="IXBFrIvI4-efO7xbqZAn-4">
          <mxGeometry relative="1" as="geometry">
            <mxPoint x="320" y="400" as="targetPoint" />
          </mxGeometry>
        </mxCell>
        <mxCell id="IXBFrIvI4-efO7xbqZAn-9" style="edgeStyle=orthogonalEdgeStyle;rounded=0;orthogonalLoop=1;jettySize=auto;html=1;entryX=0;entryY=0.5;entryDx=0;entryDy=0;" edge="1" parent="1" source="IXBFrIvI4-efO7xbqZAn-1" target="IXBFrIvI4-efO7xbqZAn-5">
          <mxGeometry relative="1" as="geometry">
            <mxPoint x="330" y="510" as="targetPoint" />
          </mxGeometry>
        </mxCell>
        <mxCell id="IXBFrIvI4-efO7xbqZAn-1" value="Actor" style="shape=umlActor;verticalLabelPosition=bottom;verticalAlign=top;html=1;" vertex="1" parent="1">
          <mxGeometry x="190" y="270" width="30" height="60" as="geometry" />
        </mxCell>
        <mxCell id="IXBFrIvI4-efO7xbqZAn-2" value="Add/Remove Audio Source Track" style="ellipse;whiteSpace=wrap;html=1;" vertex="1" parent="1">
          <mxGeometry x="430" y="60" width="160" height="100" as="geometry" />
        </mxCell>
        <mxCell id="IXBFrIvI4-efO7xbqZAn-3" value="Add/Remove Audio Sink Track" style="ellipse;whiteSpace=wrap;html=1;" vertex="1" parent="1">
          <mxGeometry x="435" y="200" width="140" height="90" as="geometry" />
        </mxCell>
        <mxCell id="IXBFrIvI4-efO7xbqZAn-4" value="Handle Audio Control" style="ellipse;whiteSpace=wrap;html=1;" vertex="1" parent="1">
          <mxGeometry x="435" y="340" width="140" height="70" as="geometry" />
        </mxCell>
        <mxCell id="IXBFrIvI4-efO7xbqZAn-5" value="Select Audio I/O Devices" style="ellipse;whiteSpace=wrap;html=1;" vertex="1" parent="1">
          <mxGeometry x="425" y="450" width="150" height="90" as="geometry" />
        </mxCell>
        <mxCell id="IXBFrIvI4-efO7xbqZAn-10" value="Audio Controls" style="swimlane;whiteSpace=wrap;html=1;" vertex="1" parent="1">
          <mxGeometry x="320" y="620" width="220" height="170" as="geometry" />
        </mxCell>
        <mxCell id="IXBFrIvI4-efO7xbqZAn-11" value="&lt;div align=&quot;left&quot;&gt;&lt;ul&gt;&lt;li&gt;Mute/Unmute&lt;/li&gt;&lt;li&gt;Deafen Call&lt;br&gt;&lt;/li&gt;&lt;li&gt;Record&lt;/li&gt;&lt;li&gt;Change Peer Volume&lt;/li&gt;&lt;/ul&gt;&lt;/div&gt;" style="text;html=1;align=left;verticalAlign=middle;resizable=0;points=[];autosize=1;strokeColor=none;fillColor=none;" vertex="1" parent="IXBFrIvI4-efO7xbqZAn-10">
          <mxGeometry x="-10" y="20" width="230" height="130" as="geometry" />
        </mxCell>
      </root>
    </mxGraphModel>
  </diagram>
  <diagram id="tzBJn1mQ7X32pIVLkur1" name="WebRTCActor">
    <mxGraphModel dx="1795" dy="986" grid="1" gridSize="10" guides="1" tooltips="1" connect="1" arrows="1" fold="1" page="1" pageScale="1" pageWidth="850" pageHeight="1100" math="0" shadow="0">
      <root>
        <mxCell id="0" />
        <mxCell id="1" parent="0" />
        <mxCell id="9dThgTIWYriy_kSdIrCu-2" style="edgeStyle=orthogonalEdgeStyle;rounded=0;orthogonalLoop=1;jettySize=auto;html=1;entryX=0;entryY=0.5;entryDx=0;entryDy=0;" edge="1" parent="1" source="xvEYe_dLOpD9yC3RILbV-1" target="OekKWjIVe5zoJVamhhBP-1">
          <mxGeometry relative="1" as="geometry">
            <mxPoint x="580" y="280" as="targetPoint" />
          </mxGeometry>
        </mxCell>
        <mxCell id="9dThgTIWYriy_kSdIrCu-3" style="edgeStyle=orthogonalEdgeStyle;rounded=0;orthogonalLoop=1;jettySize=auto;html=1;entryX=0;entryY=0.5;entryDx=0;entryDy=0;" edge="1" parent="1" source="xvEYe_dLOpD9yC3RILbV-1" target="OekKWjIVe5zoJVamhhBP-2">
          <mxGeometry relative="1" as="geometry">
            <mxPoint x="510" y="400" as="targetPoint" />
          </mxGeometry>
        </mxCell>
        <mxCell id="9dThgTIWYriy_kSdIrCu-4" style="edgeStyle=orthogonalEdgeStyle;rounded=0;orthogonalLoop=1;jettySize=auto;html=1;entryX=1;entryY=0.5;entryDx=0;entryDy=0;" edge="1" parent="1" source="xvEYe_dLOpD9yC3RILbV-1" target="OekKWjIVe5zoJVamhhBP-6">
          <mxGeometry relative="1" as="geometry">
            <mxPoint x="290" y="280" as="targetPoint" />
          </mxGeometry>
        </mxCell>
        <mxCell id="9dThgTIWYriy_kSdIrCu-5" style="edgeStyle=orthogonalEdgeStyle;rounded=0;orthogonalLoop=1;jettySize=auto;html=1;entryX=1;entryY=0.5;entryDx=0;entryDy=0;" edge="1" parent="1" source="xvEYe_dLOpD9yC3RILbV-1" target="OekKWjIVe5zoJVamhhBP-5">
          <mxGeometry relative="1" as="geometry">
            <mxPoint x="320" y="380" as="targetPoint" />
          </mxGeometry>
        </mxCell>
        <mxCell id="xvEYe_dLOpD9yC3RILbV-1" value="Actor" style="shape=umlActor;verticalLabelPosition=bottom;verticalAlign=top;html=1;" vertex="1" parent="1">
          <mxGeometry x="390" y="250" width="30" height="60" as="geometry" />
        </mxCell>
        <mxCell id="OekKWjIVe5zoJVamhhBP-1" value="Pass WebRTC Signals to Blink Controller" style="ellipse;whiteSpace=wrap;html=1;" vertex="1" parent="1">
          <mxGeometry x="600" y="130" width="157.5" height="90" as="geometry" />
        </mxCell>
        <mxCell id="OekKWjIVe5zoJVamhhBP-2" value="Pass Connection Events to Blink Controller" style="ellipse;whiteSpace=wrap;html=1;" vertex="1" parent="1">
          <mxGeometry x="583.75" y="330" width="190" height="120" as="geometry" />
        </mxCell>
        <mxCell id="OekKWjIVe5zoJVamhhBP-4" value="Determine Round Trip Time Between Peers" style="ellipse;whiteSpace=wrap;html=1;" vertex="1" parent="1">
          <mxGeometry x="330" y="60" width="170" height="110" as="geometry" />
        </mxCell>
        <mxCell id="OekKWjIVe5zoJVamhhBP-5" value="Forward Audio Stream to All Peers" style="ellipse;whiteSpace=wrap;html=1;" vertex="1" parent="1">
          <mxGeometry x="80" y="320" width="175" height="110" as="geometry" />
        </mxCell>
        <mxCell id="OekKWjIVe5zoJVamhhBP-6" value="Handle Commands from Blink Controller" style="ellipse;whiteSpace=wrap;html=1;" vertex="1" parent="1">
          <mxGeometry x="85" y="140" width="165" height="100" as="geometry" />
        </mxCell>
        <mxCell id="9dThgTIWYriy_kSdIrCu-1" style="edgeStyle=orthogonalEdgeStyle;rounded=0;orthogonalLoop=1;jettySize=auto;html=1;entryX=0.462;entryY=1;entryDx=0;entryDy=0;entryPerimeter=0;" edge="1" parent="1" source="xvEYe_dLOpD9yC3RILbV-1" target="OekKWjIVe5zoJVamhhBP-4">
          <mxGeometry relative="1" as="geometry" />
        </mxCell>
        <mxCell id="nThGh_gbbgoZiWpl9OIn-1" value="Blink Controller Cmds" style="swimlane;whiteSpace=wrap;html=1;" vertex="1" parent="1">
          <mxGeometry x="50" y="560" width="220" height="200" as="geometry" />
        </mxCell>
        <mxCell id="nThGh_gbbgoZiWpl9OIn-2" value="&lt;div align=&quot;left&quot;&gt;&lt;ul&gt;&lt;li&gt;Dial Peer&lt;/li&gt;&lt;li&gt;Answer Peer&lt;/li&gt;&lt;li&gt;Hang Up&lt;/li&gt;&lt;li&gt;Set Audio Stream&lt;/li&gt;&lt;li&gt;Remove Audio Stream&lt;/li&gt;&lt;li&gt;Ingest WebRTC Signal&lt;br&gt;&lt;/li&gt;&lt;/ul&gt;&lt;/div&gt;" style="text;html=1;align=left;verticalAlign=middle;resizable=0;points=[];autosize=1;strokeColor=none;fillColor=none;" vertex="1" parent="nThGh_gbbgoZiWpl9OIn-1">
          <mxGeometry x="-20" y="10" width="240" height="180" as="geometry" />
        </mxCell>
        <mxCell id="nThGh_gbbgoZiWpl9OIn-3" value="Connection Events" style="swimlane;whiteSpace=wrap;html=1;" vertex="1" parent="1">
          <mxGeometry x="311.25" y="560" width="208.75" height="160" as="geometry" />
        </mxCell>
        <mxCell id="nThGh_gbbgoZiWpl9OIn-4" value="&lt;div align=&quot;left&quot;&gt;&lt;ul&gt;&lt;li&gt;Connecting&lt;/li&gt;&lt;li&gt;Connected&lt;/li&gt;&lt;li&gt;Disconnected&lt;/li&gt;&lt;li&gt;Connection Failed&lt;/li&gt;&lt;/ul&gt;&lt;/div&gt;" style="text;html=1;align=left;verticalAlign=middle;resizable=0;points=[];autosize=1;strokeColor=none;fillColor=none;" vertex="1" parent="nThGh_gbbgoZiWpl9OIn-3">
          <mxGeometry x="-5" y="10" width="210" height="130" as="geometry" />
        </mxCell>
        <mxCell id="nThGh_gbbgoZiWpl9OIn-5" value="WebRTC Signals" style="swimlane;whiteSpace=wrap;html=1;" vertex="1" parent="1">
          <mxGeometry x="557.5" y="560" width="200" height="200" as="geometry" />
        </mxCell>
        <mxCell id="nThGh_gbbgoZiWpl9OIn-6" value="&lt;div align=&quot;left&quot;&gt;&lt;ul&gt;&lt;li&gt;ICE&lt;/li&gt;&lt;li&gt;SDP&lt;br&gt;&lt;/li&gt;&lt;/ul&gt;&lt;/div&gt;" style="text;html=1;align=left;verticalAlign=middle;resizable=0;points=[];autosize=1;strokeColor=none;fillColor=none;" vertex="1" parent="nThGh_gbbgoZiWpl9OIn-5">
          <mxGeometry x="-7.5" y="10" width="100" height="90" as="geometry" />
        </mxCell>
      </root>
    </mxGraphModel>
  </diagram>
</mxfile>
